<svg xmlns="http://www.w3.org/2000/svg" viewBox="0 0 512 512"><!--! Font Awesome Pro 6.4.0 by @fontawesome - https://fontawesome.com License - https://fontawesome.com/license (Commercial License) Copyright 2023 Fonticons, Inc. --><path d="M256 48a208 208 0 110 416 208 208 0 110-416zm0 464A256 256 0 10256 0a256 256 0 100 512zM92.48 151.44l327.68 0c11.328 0 20.48-9.152 20.48-20.48s-9.152-20.48-20.48-20.48L92.48 110.48C81.152 110.48 72 119.632 72 130.96S81.152 151.44 92.48 151.44zM78.016 239.376c-8 8-8 20.992 0 28.992s20.992 8 28.992 0L133.44 241.872 133.44 376.72c0 11.328 9.152 20.48 20.48 20.48s20.48-9.152 20.48-20.48l0-134.848 26.496 26.496c8 8 20.992 8 28.992 0s8-20.992 0-28.992l-61.44-61.44c-8-8-20.992-8-28.992 0l-61.44 61.44zm204.8 28.992c8 8 20.992 8 28.992 0L338.24 241.872 338.24 376.72c0 11.328 9.152 20.48 20.48 20.48s20.48-9.152 20.48-20.48l0-134.848 26.496 26.496c8 8 20.992 8 28.992 0s8-20.992 0-28.992l-61.44-61.44c-8-8-20.992-8-28.992 0l-61.44 61.44c-8 8-8 20.992 0 28.992z"/></svg>